<svg width="28" height="24" viewBox="0 0 28 24" fill="none" xmlns="http://www.w3.org/2000/svg">
<mask id="mask0_0_19" style="mask-type:alpha" maskUnits="userSpaceOnUse" x="-3" y="-3" width="34" height="30">
<rect x="-2.8" y="-2.37244" width="33.6" height="28.4667" fill="#D9D9D9"/>
</mask>
<g mask="url(#mask0_0_19)">
<path d="M1.4 5.93056V1.18611L7 3.55833L1.4 5.93056ZM22.4 5.93056V1.18611L28 3.55833L22.4 5.93056ZM12.6 4.74444V0L18.2 2.37222L12.6 4.74444ZM12.6 23.7222C10.8267 23.6827 9.17583 23.5591 7.6475 23.3516C6.11917 23.144 4.78917 22.8821 3.6575 22.5658C2.52583 22.2495 1.63333 21.8838 0.98 21.4686C0.326667 21.0535 0 20.6186 0 20.1639V9.48889C0 8.99468 0.3675 8.53506 1.1025 8.11003C1.8375 7.68501 2.835 7.30941 4.095 6.98323C5.355 6.65705 6.83667 6.40006 8.54 6.21226C10.2433 6.02446 12.0633 5.93056 14 5.93056C15.9367 5.93056 17.7567 6.02446 19.46 6.21226C21.1633 6.40006 22.645 6.65705 23.905 6.98323C25.165 7.30941 26.1625 7.68501 26.8975 8.11003C27.6325 8.53506 28 8.99468 28 9.48889V20.1639C28 20.6186 27.6733 21.0535 27.02 21.4686C26.3667 21.8838 25.4742 22.2495 24.3425 22.5658C23.2108 22.8821 21.8808 23.144 20.3525 23.3516C18.8242 23.5591 17.1733 23.6827 15.4 23.7222V18.9778H12.6V23.7222ZM14 10.675C16.2633 10.675 18.2175 10.5613 19.8625 10.334C21.5075 10.1067 22.82 9.84472 23.8 9.54819C23.8 9.44935 22.9133 9.21707 21.14 8.85135C19.3667 8.48564 16.9867 8.30278 14 8.30278C11.0133 8.30278 8.63333 8.48564 6.86 8.85135C5.08667 9.21707 4.2 9.44935 4.2 9.54819C5.18 9.84472 6.4925 10.1067 8.1375 10.334C9.7825 10.5613 11.7367 10.675 14 10.675ZM9.8 21.1721V16.6056H18.2V21.1721C20.0667 21.0139 21.595 20.7817 22.785 20.4752C23.975 20.1688 24.78 19.897 25.2 19.6598V11.6239C23.9167 12.0588 22.3067 12.4047 20.37 12.6617C18.4333 12.9187 16.31 13.0472 14 13.0472C11.69 13.0472 9.56667 12.9187 7.63 12.6617C5.69333 12.4047 4.08333 12.0588 2.8 11.6239V19.6598C3.22 19.897 4.025 20.1688 5.215 20.4752C6.405 20.7817 7.93333 21.0139 9.8 21.1721Z" fill="url(#paint0_linear_0_19)"/>
</g>
<defs>
<linearGradient id="paint0_linear_0_19" x1="14" y1="0" x2="14" y2="23.7222" gradientUnits="userSpaceOnUse">
<stop stop-color="#FFDE59" stop-opacity="0.87"/>
<stop offset="1" stop-color="#FF915D"/>
</linearGradient>
</defs>
</svg>
