<svg width="26" height="22" viewBox="0 0 26 22" fill="none" xmlns="http://www.w3.org/2000/svg">
<path d="M12.9835 0C5.81662 0 0 4.92797 0 10.9999C0 17.0719 5.81662 21.9999 12.9835 21.9999C20.1504 21.9999 25.9671 17.0719 25.9671 10.9999C25.9671 4.92797 20.1504 0 12.9835 0ZM12.9835 3.29998C15.1388 3.29998 16.8786 4.77397 16.8786 6.59996C16.8786 8.42594 15.1388 9.89994 12.9835 9.89994C10.8283 9.89994 9.08847 8.42594 9.08847 6.59996C9.08847 4.77397 10.8283 3.29998 12.9835 3.29998ZM12.9835 18.9199C11.4409 18.9199 9.92225 18.5965 8.563 17.9784C7.20374 17.3604 6.04614 16.467 5.19341 15.3779C5.23236 13.1889 10.3868 11.9899 12.9835 11.9899C15.5672 11.9899 20.7347 13.1889 20.7736 15.3779C19.9209 16.467 18.7633 17.3604 17.4041 17.9784C16.0448 18.5965 14.5262 18.9199 12.9835 18.9199Z" fill="#D9D9D9"/>
</svg>
