<svg width="15" height="3" viewBox="0 0 15 3" fill="none" xmlns="http://www.w3.org/2000/svg">
<path d="M14.5069 0H0.493108C0.361655 0.00165527 0.236248 0.0470592 0.143981 0.126403C0.0517145 0.205746 -3.9438e-06 0.312659 2.25561e-10 0.424041C3.94425e-06 0.535423 0.0517299 0.642333 0.144002 0.721671C0.236275 0.80101 0.361684 0.846407 0.493137 0.848056H14.5069C14.6383 0.846404 14.7637 0.801003 14.856 0.721661C14.9483 0.64232 15 0.53541 15 0.424028C15 0.312646 14.9483 0.205735 14.856 0.126394C14.7637 0.0470534 14.6383 0.00165193 14.5069 0ZM11.5039 1.69611H3.49606C3.36461 1.69777 3.2392 1.74317 3.14693 1.82251C3.05466 1.90186 3.00295 2.00877 3.00295 2.12015C3.00295 2.23154 3.05468 2.33844 3.14695 2.41778C3.23923 2.49712 3.36463 2.54252 3.49609 2.54417H11.5039C11.6354 2.54252 11.7608 2.49711 11.8531 2.41777C11.9453 2.33843 11.997 2.23152 11.997 2.12014C11.997 2.00876 11.9453 1.90185 11.8531 1.82251C11.7608 1.74317 11.6354 1.69776 11.5039 1.69611Z" fill="#D9D9D9"/>
</svg>
