<svg width="30" height="23" viewBox="0 0 30 23" fill="none" xmlns="http://www.w3.org/2000/svg">
<path d="M27.738 20.0729L29.53 17.7958C29.5795 17.7328 29.608 17.6596 29.6123 17.584C29.6166 17.5084 29.5967 17.4332 29.5545 17.3665C29.5123 17.2997 29.4496 17.2439 29.3729 17.205C29.2963 17.1662 29.2086 17.1456 29.1193 17.1456H26.8981C26.8968 16.4108 26.6467 15.6917 26.1774 15.0736C25.7082 14.4556 25.0396 13.9646 24.2509 13.6588C24.8231 13.3327 25.2654 12.8675 25.5196 12.3244C25.7738 11.7813 25.828 11.1857 25.675 10.616C25.522 10.0463 25.169 9.52914 24.6625 9.13265C24.156 8.73615 23.5196 8.47886 22.8372 8.39462C22.7559 7.72914 22.471 7.09315 22.0107 6.54951C21.5504 6.00587 20.9306 5.57341 20.2127 5.29486C20.8231 4.95167 21.2868 4.45101 21.535 3.86706C21.7833 3.28312 21.8029 2.64694 21.591 2.05281C21.3791 1.45867 20.9469 0.938166 20.3585 0.568423C19.7701 0.198679 19.0567 -0.000637719 18.3241 2.81256e-06C17.5915 0.000643345 16.8787 0.201207 16.2911 0.571979C15.7036 0.94275 15.2727 1.464 15.0622 2.05851C14.8518 2.65302 14.8729 3.28916 15.1226 3.87267C15.3723 4.45618 15.8372 4.95603 16.4485 5.29815C15.8384 5.53479 15.2977 5.88282 14.8651 6.3173C14.4839 6.25905 14.0934 6.25908 13.7123 6.31738C13.2803 5.88255 12.7399 5.53435 12.1299 5.29787C12.7411 4.95566 13.2059 4.45576 13.4554 3.87223C13.705 3.2887 13.7261 2.65258 13.5155 2.05811C13.3049 1.46364 12.874 0.94245 12.2864 0.571753C11.6988 0.201055 10.986 0.000570869 10.2534 1.21731e-06C9.52079 -0.000568435 8.80748 0.198807 8.21912 0.56859C7.63076 0.938373 7.19864 1.45889 6.98679 2.05303C6.77494 2.64717 6.79462 3.28332 7.04292 3.86724C7.29123 4.45116 7.75494 4.95178 8.36536 5.29494C7.6531 5.57145 7.03747 5.9995 6.57842 6.53741C6.11936 7.07532 5.83252 7.70476 5.74581 8.36446C5.01747 8.37166 4.31092 8.57593 3.72931 8.94744C3.14771 9.31896 2.72151 9.83826 2.51295 10.4295C2.30439 11.0208 2.32439 11.6531 2.57002 12.234C2.81566 12.815 3.27407 13.3142 3.87832 13.6588C3.0896 13.9646 2.42096 14.4556 1.95174 15.0736C1.48252 15.6917 1.23241 16.4108 1.23108 17.1456H0.490685C0.401805 17.1466 0.314855 17.1677 0.238894 17.2068C0.162934 17.2459 0.100743 17.3016 0.0588029 17.368C0.0168626 17.4344 -0.00329249 17.5091 0.000437975 17.5843C0.00416844 17.6596 0.0316479 17.7326 0.0800128 17.7958L1.87194 20.0729L0.0800128 22.3501C0.0316909 22.4133 0.0042479 22.4863 0.000541536 22.5615C-0.00316483 22.6367 0.017001 22.7114 0.0589391 22.7778C0.100877 22.8442 0.163054 22.8998 0.238995 22.939C0.314936 22.9781 0.401865 22.9992 0.49073 23.0002L7.89463 23.0002C7.97567 22.9998 8.05509 22.981 8.12465 22.9457C8.20154 22.9092 8.26612 22.8566 8.31225 22.7929C8.35839 22.7293 8.38454 22.6567 8.38823 22.582V20.4911H21.2217V22.582C21.2254 22.6567 21.2516 22.7293 21.2977 22.7929C21.3438 22.8566 21.4084 22.9092 21.4853 22.9457C21.5549 22.9809 21.6343 22.9998 21.7153 23.0002H29.1193C29.2082 22.9992 29.2951 22.9781 29.371 22.939C29.447 22.8999 29.5091 22.8442 29.5511 22.7778C29.593 22.7114 29.6132 22.6367 29.6094 22.5615C29.6057 22.4863 29.5783 22.4133 29.53 22.3501L27.738 20.0729ZM25.9109 17.1456H25.1705V16.3092C25.17 15.8658 24.9618 15.4406 24.5916 15.127C24.2215 14.8134 23.7196 14.637 23.1961 14.6365H20.4195C20.9553 14.3443 21.5737 14.1791 22.2103 14.1582C22.847 14.1373 23.4787 14.2615 24.0394 14.5177C24.6002 14.774 25.0697 15.1529 25.3988 15.6151C25.728 16.0773 25.9048 16.6058 25.9109 17.1456ZM24.789 11.253C24.6872 13.9662 20.0442 13.9654 19.9429 11.253C20.0447 8.54004 24.6876 8.54047 24.789 11.253ZM15.9042 2.88932C16.006 0.176219 20.6493 0.176854 20.7505 2.88937C20.6488 5.60243 16.0055 5.60179 15.9042 2.88932ZM18.3293 5.77946C19.1907 5.78063 20.0222 6.04737 20.6685 6.52987C21.3148 7.01238 21.7318 7.67767 21.8415 8.40154C21.1663 8.49518 20.5399 8.75833 20.0432 9.15695C19.5465 9.55557 19.2025 10.0713 19.0556 10.6374C18.9087 11.2035 18.9657 11.794 19.2193 12.3323C19.4729 12.8707 19.9113 13.3322 20.4779 13.6571C19.8914 13.8858 19.3709 14.22 18.9524 14.6365H18.7928C18.706 13.977 18.4193 13.3478 17.9604 12.81C17.5016 12.2722 16.8863 11.8442 16.1744 11.5676C16.6622 11.2886 17.0569 10.9077 17.3204 10.4618C17.5838 10.0159 17.7072 9.52001 17.6786 9.02195C17.6499 8.52389 17.4702 8.04049 17.1568 7.61841C16.8434 7.19633 16.4069 6.84982 15.8894 6.61231C16.5471 6.08063 17.4202 5.7826 18.3293 5.77946ZM17.7953 14.6365H10.7827C10.9058 13.9231 11.3278 13.271 11.9716 12.7995C12.6154 12.328 13.438 12.0686 14.289 12.0686C15.14 12.0686 15.9626 12.328 16.6064 12.7995C17.2502 13.271 17.6722 13.9231 17.7953 14.6365ZM14.289 7.10916C17.4913 7.19535 17.4906 11.1292 14.2889 11.2151C11.0866 11.1288 11.0874 7.19495 14.289 7.10916ZM7.82739 2.88932C7.92916 0.176319 12.5721 0.176754 12.6735 2.88937C12.5717 5.60253 7.92869 5.60168 7.82739 2.88932ZM10.2491 5.77946C11.1598 5.77694 12.0357 6.0754 12.6907 6.61141C12.1728 6.84868 11.7359 7.19508 11.4221 7.61716C11.1083 8.03925 10.9283 8.52274 10.8994 9.02097C10.8706 9.51919 10.9938 10.0153 11.2573 10.4614C11.5208 10.9075 11.9156 11.2885 12.4035 11.5676C11.6916 11.8442 11.0763 12.2722 10.6175 12.81C10.1587 13.3478 9.87191 13.977 9.78511 14.6365H9.17674C8.7583 14.22 8.23774 13.8858 7.65129 13.6571C8.1867 13.3499 8.60842 12.9205 8.86758 12.4186C9.12673 11.9167 9.21271 11.3629 9.11554 10.8213C9.01838 10.2797 8.74205 9.77254 8.31859 9.35855C7.89512 8.94456 7.34185 8.64072 6.7229 8.48223C6.81167 7.74189 7.22134 7.05574 7.87268 6.5565C8.52402 6.05725 9.37075 5.78039 10.2491 5.77946ZM3.34022 11.253C3.44202 8.53985 8.085 8.54068 8.18629 11.2531C8.08449 13.966 3.44154 13.9656 3.34022 11.253ZM5.76241 14.1432C6.45471 14.1413 7.1322 14.313 7.70965 14.6365H6.41384C5.89038 14.637 5.38851 14.8134 5.01836 15.127C4.64821 15.4406 4.44002 15.8658 4.43946 16.3092V17.1456H2.21827C2.21937 16.3496 2.59313 15.5864 3.25755 15.0235C3.92197 14.4607 4.82281 14.1441 5.76241 14.1432ZM1.41304 22.1638L2.87574 20.3049C2.92984 20.2362 2.95871 20.1555 2.95871 20.0729C2.95871 19.9904 2.92984 19.9096 2.87574 19.841L1.41304 17.982H4.43946C4.42517 18.3568 4.43662 18.732 4.47374 19.1057C4.44678 19.1689 4.43857 19.2368 4.44982 19.3033C4.46107 19.3699 4.49145 19.433 4.53828 19.4873L6.90768 22.1638H1.41304ZM7.40104 21.3278L6.6604 20.4911H7.40104V21.3278ZM6.41384 19.6547C6.15212 19.6545 5.90119 19.5663 5.71612 19.4095C5.53105 19.2527 5.42695 19.0401 5.42665 18.8184V16.3092C5.42695 16.0875 5.53105 15.8749 5.71612 15.7181C5.90119 15.5613 6.15212 15.4731 6.41384 15.4729H23.1961C23.4579 15.4731 23.7088 15.5613 23.8938 15.7181C24.0789 15.8749 24.183 16.0875 24.1833 16.3092V18.8184C24.183 19.0401 24.0789 19.2527 23.8938 19.4095C23.7088 19.5663 23.4579 19.6545 23.1961 19.6547H6.41384ZM22.2089 20.4911H22.9496L22.2089 21.3278V20.4911ZM22.7023 22.1638L25.0717 19.4873C25.1185 19.433 25.1489 19.3699 25.1602 19.3033C25.1714 19.2368 25.1632 19.1689 25.1362 19.1057C25.1737 18.732 25.1852 18.3568 25.1705 17.982H28.1969L26.7342 19.841C26.6801 19.9096 26.6513 19.9904 26.6513 20.0729C26.6513 20.1555 26.6801 20.2362 26.7342 20.3049L28.1969 22.1638H22.7023Z" fill="black" fill-opacity="0.25"/>
</svg>
